#!OML:ASF F:\VICON\USERDATA\INSTALL\Justin_Nancy\Justin_Nancy.ASF
:FULLY-SPECIFIED
:DEGREES
334
root -2.62435 17.4099 10.845 5.35138 43.5835 6.15957
lowerback 5.85637 -2.43706 -5.49195
upperback 0.324772 -3.54474 2.06433
thorax -2.4813 -1.69708 5.49822
lowerneck -16.9429 -3.06139 -9.46184
upperneck 24.927 -2.36878 3.35007
head 11.0452 -1.51843 2.47817
rclavicle 1.1609e-013 -1.27222e-014
rhumerus -38.4031 -18.7201 -73.8669
rradius 29.7139
rwrist 6.44169
rhand -14.1926 13.7692
rfingers 7.12502
rthumb 11.9434 -15.8701
lclavicle 1.1609e-013 -1.27222e-014
lhumerus -27.9049 7.55131 83.4058
lradius 34.5803
lwrist -5.91637
lhand -16.5356 25.0424
lfingers 7.12502
lthumb 9.6834 54.7999
rfemur -25.3273 2.0839 17.3507
rtibia 24.0356
rfoot -1.4066 -5.71965
rtoes 17.7328
lfemur 6.60533 -3.21695 -27.814
ltibia 29.9404
lfoot -5.79447 -10.0138
ltoes -9.05067
335
root -2.5139 17.4182 10.9151 5.91926 43.7751 6.46001
lowerback 5.99164 -2.4716 -4.76511
upperback -0.00880403 -3.56152 1.82039
thorax -2.96075 -1.69175 4.85436
lowerneck -16.8836 -3.10981 -9.23068
upperneck 25.0168 -2.43304 3.07469
head 11.0657 -1.56081 2.33041
rclavicle -8.74653e-014 -3.18055e-015
rhumerus -38.7225 -18.8839 -73.6341
rradius 29.6634
rwrist 6.61118
rhand -14.1185 13.644
rfingers 7.12502
rthumb 12.0149 -15.9911
lclavicle -8.74653e-014 -3.18055e-015
lhumerus -28.3397 7.67949 83.3881
lradius 34.2966
lwrist -6.05272
lhand -15.9816 23.818
lfingers 7.12502
lthumb 10.2179 53.5498
rfemur -25.3725 0.3405 17.3791
rtibia 24.3863
rfoot -1.1411 -3.37703
rtoes 15.6715
lfemur 5.31284 -3.46093 -28.0709
ltibia 31.9159
lfoot -3.83563 -10.469
ltoes -9.26244
336
root -2.42186 17.4264 11.0401 5.86508 43.6514 6.30881
lowerback 5.91982 -2.4004 -4.55175
upperback -0.0580039 -3.44974 1.81367
thorax -2.9974 -1.63704 4.71699
lowerneck -16.8856 -3.16935 -9.24124
upperneck 25.0562 -2.53178 3.1382
head 11.0886 -1.5994 2.34148
rclavicle 5.397e-014 -2.3059e-014
rhumerus -38.8016 -19.1929 -73.4234
rradius 29.5434
rwrist 6.79466
rhand -14.1769 14.1639
rfingers 7.12502
rthumb 11.9585 -15.4745
lclavicle 5.397e-014 -2.3059e-014
lhumerus -28.6223 8.11582 83.3626
lradius 34.0553
lwrist -6.38087
lhand -15.6901 23.9862
lfingers 7.12502
lthumb 10.4991 53.704
rfemur -24.9706 0.121218 17.6771
rtibia 24.6377
rfoot -1.21729 -2.33782
rtoes 14.2805
lfemur 4.36037 -3.25975 -27.7414
ltibia 33.8607
lfoot -1.58849 -11.0945
ltoes -8.77614
337
root -2.34208 17.4444 11.2109 5.14516 43.4842 5.5748
lowerback 5.82162 -2.23937 -4.4161
upperback 0.0170868 -3.21495 1.98068
thorax -2.88863 -1.52575 4.79029
lowerneck -16.9071 -3.25157 -9.46907
upperneck 25.188 -2.66789 3.4584
head 11.16 -1.64519 2.47921
rclavicle -1.07344e-013 1.59028e-015
rhumerus -38.8644 -19.421 -73.2696
rradius 29.3118
rwrist 6.83517
rhand -14.1845 14.1293
rfingers 7.12502
rthumb 11.9512 -15.5095
lclavicle -1.07344e-013 1.59028e-015
lhumerus -28.6999 8.9711 83.2236
lradius 33.3449
lwrist -7.41159
lhand -15.6402 24.7891
lfingers 7.12502
lthumb 10.5472 54.5045
rfemur -24.2735 0.853796 18.3973
rtibia 24.9158
rfoot -1.42478 -2.71616
rtoes 15.5156
lfemur 3.75134 -2.83962 -26.7181
ltibia 35.6464
lfoot 1.01963 -11.9124
ltoes -7.8776
338
root -2.26832 17.4639 11.3905 4.01794 43.4412 4.45941
lowerback 5.93468 -2.0643 -4.06893
upperback 0.0699644 -2.95176 2.24603
thorax -2.93032 -1.39711 4.85679
lowerneck -16.8396 -3.33071 -9.58099
upperneck 25.3297 -2.78729 3.58278
head 11.2132 -1.69666 2.52877
rclavicle 5.1038e-014 -7.95139e-016
rhumerus -39.0269 -19.2591 -73.1691
rradius 29.0507
rwrist 6.60778
rhand -14.0695 14.1646
rfingers 7.12502
rthumb 12.0621 -15.4678
lclavicle 5.1038e-014 -7.95139e-016
lhumerus -28.915 9.65681 83.0662
lradius 32.6108
lwrist -8.37901
lhand -15.4994 24.5942
lfingers 7.12502
lthumb 10.683 54.3026
rfemur -23.3316 1.78392 19.3945
rtibia 24.9975
rfoot -1.69223 -3.58445
rtoes 18.0227
lfemur 3.22544 -2.40915 -25.3211
ltibia 37.4604
lfoot 3.71413 -12.8476
ltoes -8.3727
